<svg id="Layer_1" data-name="Layer 1" xmlns="http://www.w3.org/2000/svg" xmlns:xlink="http://www.w3.org/1999/xlink" viewBox="0 0 32 32"><defs><style>.cls-1{fill:url(#linear-gradient);}.cls-2{fill:url(#linear-gradient-2);}.cls-3{fill:url(#linear-gradient-3);}.cls-4{fill:url(#linear-gradient-4);}.cls-5{fill:url(#linear-gradient-5);}</style><linearGradient id="linear-gradient" x1="1.75" y1="15.98" x2="30.25" y2="15.98" gradientUnits="userSpaceOnUse"><stop offset="0" stop-color="#162b3d"/><stop offset="1" stop-color="#0a304c"/></linearGradient><linearGradient id="linear-gradient-2" x1="17.58" y1="24.84" x2="22.34" y2="24.84" xlink:href="#linear-gradient"/><linearGradient id="linear-gradient-3" x1="9.82" y1="23.14" x2="16.44" y2="23.14" xlink:href="#linear-gradient"/><linearGradient id="linear-gradient-4" x1="9.82" y1="24.81" x2="16.45" y2="24.81" xlink:href="#linear-gradient"/><linearGradient id="linear-gradient-5" x1="9.82" y1="26.53" x2="16.45" y2="26.53" xlink:href="#linear-gradient"/></defs><title>Untitled-4</title><path class="cls-1" d="M16,30.25H6.84c-.44,0-.44,0-.44-.44,0-1.3,0-2.59,0-3.88,0-.3-.1-.39-.39-.39a16.85,16.85,0,0,1-1.88,0,2.67,2.67,0,0,1-2.37-2.6c0-2.69,0-5.39,0-8.09a2.08,2.08,0,0,1,1.35-2,3.1,3.1,0,0,1,1.53-.29c.27,0,.35-.08.35-.35a12,12,0,0,1,0-1.9A1.74,1.74,0,0,1,6.16,8.8c.23-.09.24-.24.24-.44V2.18c0-.47,0-.47.45-.47H19.28a.77.77,0,0,1,.6.24c1.75,1.74,3.5,3.48,5.28,5.2a1.19,1.19,0,0,1,.45,1.1.5.5,0,0,0,.35.6A1.75,1.75,0,0,1,27,10.52c0,.52,0,1.05,0,1.57s0,.42.4.41a3.11,3.11,0,0,1,2.1.67,1.74,1.74,0,0,1,.71,1.46c0,2.75,0,5.51,0,8.27a2.74,2.74,0,0,1-2.39,2.61c-.59,0-1.17,0-1.76,0s-.49,0-.49.48v3.79c0,.42,0,.43-.43.43Zm0-15.1H4.41c-.21,0-.4,0-.4.3,0,2.41,0,4.82,0,7.23,0,.38.16.52.53.53s1,0,1.48,0c.29,0,.39-.09.38-.39,0-1,0-2.07,0-3.1,0-.31.09-.41.41-.41H25.2c.4,0,.41,0,.41.42,0,1,0,2.07,0,3.11,0,.28.1.37.38.36.45,0,.9,0,1.35,0s.66-.08.66-.66V15.63c0-.48,0-.48-.47-.48Zm0-2.65h7.35c.39,0,.4,0,.4-.39V9.25c0-.43,0-.44-.42-.44H18.65c-.41,0-.44,0-.44-.43V4c0-.39,0-.4-.4-.4H8.65c-.32,0-.4.11-.4.41,0,2.7,0,5.39,0,8.09,0,.43,0,.43.43.43Zm0,15.88h7.38c.31,0,.41-.09.4-.4,0-2.12,0-4.24,0-6.37,0-.42,0-.43-.43-.43H8.68c-.43,0-.43,0-.43.43q0,3.15,0,6.3c0,.47,0,.47.45.47Zm3.7-24.67a1.88,1.88,0,0,0,0,.2c0,1.07,0,2.13,0,3.2,0,.25.13.28.33.27h3.13a.51.51,0,0,1,.15,0Z"/><path class="cls-2" d="M20,27h-2c-.24,0-.34-.08-.33-.32,0-1.25,0-2.5,0-3.75,0-.24.09-.33.33-.33H22c.23,0,.34.07.34.32q0,1.88,0,3.75c0,.23-.09.33-.33.33Z"/><path class="cls-3" d="M13.14,22.64H16c.38,0,.4,0,.4.4a1.47,1.47,0,0,0,0,.21c0,.28-.08.39-.36.39-2,0-3.92,0-5.87,0-.27,0-.39-.09-.38-.38,0-.62,0-.62.61-.62Z"/><path class="cls-4" d="M13.13,25.31h-2.9c-.29,0-.42-.07-.41-.39,0-.6,0-.6.61-.6h5.51c.16,0,.39-.08.46.14a1.14,1.14,0,0,1,0,.75c-.05.14-.21.1-.33.1Z"/><path class="cls-5" d="M13.14,27h-2.9c-.4,0-.41,0-.42-.41,0-.58,0-.58.57-.58H16c.14,0,.35-.06.4.13a1.1,1.1,0,0,1,0,.78c-.06.12-.22.08-.34.08Z"/></svg>