<svg id="Layer_1" data-name="Layer 1" xmlns="http://www.w3.org/2000/svg" xmlns:xlink="http://www.w3.org/1999/xlink" viewBox="0 0 32 32"><defs><style>.cls-1{fill:url(#linear-gradient);}</style><linearGradient id="linear-gradient" x1="0.83" y1="15.61" x2="31.17" y2="15.61" gradientUnits="userSpaceOnUse"><stop offset="0" stop-color="#162b3d"/><stop offset="1" stop-color="#0a304c"/></linearGradient></defs><title>Untitled-4</title><path class="cls-1" d="M.83,23.78V7.44C.87,7.3.9,7.15.94,7a3.78,3.78,0,0,1,3.6-2.79h22.9A3.77,3.77,0,0,1,31.16,8q0,7.65,0,15.32A3.76,3.76,0,0,1,27.44,27H4.54A3.46,3.46,0,0,1,3,26.65,3.85,3.85,0,0,1,.83,23.78ZM16,25.06H27l.44,0c.1,0,.24,0,.29-.1s-.09-.19-.15-.27q-3.85-4.39-7.7-8.8c-.16-.18-.26-.18-.45,0-.86.76-1.74,1.51-2.62,2.26a1.07,1.07,0,0,1-1.65,0l-2.6-2.24c-.2-.18-.31-.17-.49,0l-6,6.9C5.49,23.41,5,24,4.42,24.64c-.08.09-.22.17-.17.29s.21.08.32.11a2.75,2.75,0,0,0,.41,0ZM4.44,6.2l-.05.1a1,1,0,0,1,.17.12Q10.14,11.19,15.72,16c.21.18.34.16.55,0q5.57-4.8,11.16-9.57c.05,0,.12-.08.11-.21ZM2.75,15.6v7.34c0,.15,0,.37.1.43s.22-.17.31-.28l7.35-8.39c.3-.34.3-.34,0-.64L5.1,9.46l-2-1.71c-.22-.18-.26-.17-.31.11a4,4,0,0,0,0,.5Zm26.47,0V8.36a3.59,3.59,0,0,0,0-.47c-.05-.32-.09-.33-.33-.12l-7.37,6.31c-.32.28-.32.28,0,.6l7.34,8.39c.1.11.21.34.33.29s.1-.31.1-.48C29.23,20.46,29.22,18,29.22,15.61Z"/></svg>