<?xml version="1.0" encoding="utf-8"?>
<!-- Generator: Adobe Illustrator 22.0.1, SVG Export Plug-In . SVG Version: 6.00 Build 0)  -->
<svg version="1.1" id="Layer_1" xmlns="http://www.w3.org/2000/svg" xmlns:xlink="http://www.w3.org/1999/xlink" x="0px" y="0px"
	 viewBox="0 0 120 61.9" style="enable-background:new 0 0 120 61.9;" xml:space="preserve">
<style type="text/css">
	.st0{fill:#F1C437;}
</style>
<g>
	<g>
		<g>
			<path class="st0" d="M38.2,7.1h-4.5v0.1c-0.2,0-0.4,0-0.7,0C21.2,11.4,11.8,21.3,5.7,36.1C1.1,47.2,0.1,56.9,0,57.4
				c0,0.4,0.1,0.8,0.3,1.1c0.3,0.3,0.6,0.5,1,0.5h4.8c0.7,0,1.3-0.6,1.3-1.4s-0.6-1.4-1.3-1.4H2.9c0.5-3.2,1.9-10.7,5.3-18.9
				c0.5-1.2,1-2.3,1.5-3.4h16.1c0.7,0,1.3-0.6,1.3-1.4S26.5,31,25.8,31H11.1c5.6-10.6,13.2-17.6,22.6-21v46c0,1.7,1.2,3,2.8,3h1.7
				c1.5,0,2.8-1.3,2.8-3V10.1C41,8.5,39.7,7.1,38.2,7.1z"/>
		</g>
		<g>
			<path class="st0" d="M119.7,7.8c-0.3-0.3-0.6-0.5-1-0.5h-4.8c-0.7,0-1.3,0.6-1.3,1.4s0.6,1.4,1.3,1.4h3.3
				c-0.4,3.1-1.7,10.7-5,18.8c-2.5,6.2-5.6,11.6-9.3,15.9c-1.1,1.3-2.3,2.6-3.5,3.7V33.8c0-0.8-0.6-1.4-1.3-1.4s-1.3,0.6-1.3,1.4v17
				c-3,2.3-6.3,4.1-9.8,5.4L87,10.2c0-1.7-1.2-3-2.8-3l-1.7,0c-1.5,0-2.8,1.3-2.8,3L79.7,56c0,1.7,1.2,3,2.8,3l4.5,0l0,0
				c0.1,0,0.2,0,0.3,0c0.1,0,0.3,0,0.4-0.1c11.8-4.1,21.2-14.1,27.1-28.9C119.1,19,120,9.3,120,8.9C120,8.5,119.9,8.1,119.7,7.8z"/>
		</g>
		<g>
			<g>
				<path class="st0" d="M61.7,27.2h-1.1h-0.3h-6.7V9h0L48,0.7l0,0C47.8,0.3,47.3,0,46.8,0H35c-0.7,0-1.3,0.6-1.3,1.4
					s0.6,1.4,1.3,1.4h10.7L46.3,9h0v18c0,1.7,1.2,3,2.8,3h0.2c0,0,0,0,0,0h10.8L61.7,27.2z"/>
			</g>
			<g>
				<path class="st0" d="M85.6,0H73.8c-0.5,0-0.9,0.3-1.1,0.7l0,0L67.1,9h0v18.2h0l0,0L65.6,30h5.2c0,0,0,0,0,0h0.7
					c1.5,0,2.8-1.3,2.8-3V9h0L75,2.8h10.7c0.7,0,1.3-0.6,1.3-1.4S86.4,0,85.6,0z"/>
			</g>
		</g>
		<g>
			<g>
				<path class="st0" d="M53.6,37.5l1.5-2.8h-5.2c0,0,0,0,0,0h-0.7c-1.5,0-2.8,1.3-2.8,3V59h-1c-0.7,0-1.3,0.6-1.3,1.4
					s0.6,1.4,1.3,1.4h1v0h4.5c1.5,0,2.8-1.3,2.8-3L53.6,37.5L53.6,37.5z"/>
			</g>
			<g>
				<path class="st0" d="M75.4,59h-1V37.7c0-1.7-1.2-3-2.8-3h-0.7c0,0,0,0,0,0H60.6h-0.1L59,37.5h0.8h0.8h6.5v21.4
					c0,1.7,1.2,3,2.8,3h4.5v0h1c0.7,0,1.3-0.6,1.3-1.4S76.1,59,75.4,59z"/>
			</g>
		</g>
	</g>
</g>
</svg>
