<?xml version="1.0" encoding="utf-8"?>
<!-- Generator: Adobe Illustrator 22.0.1, SVG Export Plug-In . SVG Version: 6.00 Build 0)  -->
<svg version="1.1" id="Layer_1" xmlns="http://www.w3.org/2000/svg" xmlns:xlink="http://www.w3.org/1999/xlink" x="0px" y="0px"
	 viewBox="0 0 200 37.6" style="enable-background:new 0 0 200 37.6;" xml:space="preserve">
<style type="text/css">
	.st0{fill:#F1C437;}
</style>
<g>
	<g>
		<path class="st0" d="M104.7,9.6l3.7-8.1l3.7,8.1h-1.7l-0.5-1.2h-3l-0.5,1.2H104.7z M107.5,7h1.8l-0.9-2L107.5,7z"/>
		<path class="st0" d="M112.7,9.6V2h1.5v7.6H112.7z"/>
		<path class="st0" d="M115.8,9.6v-4h-0.8V4.1h0.8V4c0-0.8,0.2-1.4,0.6-1.7c0.3-0.3,0.8-0.4,1.4-0.4c0.2,0,0.4,0,0.6,0.1v1.4
			c-0.1,0-0.2-0.1-0.5-0.1c-0.5,0-0.7,0.2-0.7,0.7v0.3h1v1.5h-1v4H115.8z"/>
		<path class="st0" d="M122.7,4.8V4.1h1.5v5.5h-1.5V8.9c-0.2,0.5-0.8,0.8-1.5,0.8c-0.7,0-1.3-0.3-1.8-0.8c-0.5-0.6-0.7-1.2-0.7-2
			c0-0.8,0.2-1.5,0.7-2c0.5-0.6,1.1-0.8,1.8-0.8C121.9,4,122.5,4.3,122.7,4.8z M122.4,7.8c0.3-0.3,0.4-0.6,0.4-1
			c0-0.4-0.1-0.7-0.4-1c-0.3-0.3-0.6-0.4-0.9-0.4c-0.4,0-0.7,0.1-0.9,0.4c-0.3,0.3-0.4,0.6-0.4,1c0,0.4,0.1,0.7,0.4,1
			c0.3,0.3,0.6,0.4,0.9,0.4C121.8,8.2,122.1,8.1,122.4,7.8z"/>
		<path class="st0" d="M125.2,9.6V4.1h1.5v0.8c0.2-0.6,0.8-0.9,1.5-0.9c0.1,0,0.2,0,0.4,0v1.5c-0.2,0-0.3-0.1-0.5-0.1
			c-0.9,0-1.4,0.5-1.4,1.4v2.7H125.2z"/>
		<path class="st0" d="M130.1,1.8c0.5,0,0.9,0.4,0.9,0.9c0,0.5-0.4,0.9-0.9,0.9c-0.5,0-0.9-0.4-0.9-0.9
			C129.3,2.2,129.6,1.8,130.1,1.8z M129.4,9.6V4.1h1.5v5.5H129.4z"/>
		<path class="st0" d="M131.3,9.6l2.9-4.1h-2.4V4.1h4.9l-2.8,4.1h2.7v1.4H131.3z"/>
		<path class="st0" d="M138.2,1.8c0.5,0,0.9,0.4,0.9,0.9c0,0.5-0.4,0.9-0.9,0.9c-0.5,0-0.9-0.4-0.9-0.9
			C137.3,2.2,137.7,1.8,138.2,1.8z M137.4,9.6V4.1h1.5v5.5H137.4z"/>
		<path class="st0" d="M140,8.4h1.5l-1.3,2.6h-1.1L140,8.4z"/>
		<path class="st0" d="M105.3,22.7v-7.6h1.6v2.8h3.1v-2.8h1.6v7.6h-1.6v-3.3h-3.1v3.3H105.3z"/>
		<path class="st0" d="M112.6,17.2h1.5v3.1c0,0.7,0.4,1,0.9,1c0.6,0,0.9-0.3,0.9-1v-3.1h1.5v3.3c0,0.8-0.2,1.4-0.7,1.8
			c-0.5,0.4-1.1,0.6-1.8,0.6c-0.7,0-1.3-0.2-1.8-0.6c-0.5-0.4-0.7-1-0.7-1.8V17.2z"/>
		<path class="st0" d="M118.5,22.7v-5.5h1.5v0.7c0.2-0.5,0.7-0.8,1.3-0.8c0.7,0,1.2,0.3,1.4,0.9c0.3-0.6,0.9-0.9,1.7-0.9
			c1.2,0,1.8,0.9,1.8,2.3v3.3h-1.5v-3.1c0-0.6-0.3-1-0.8-1c-0.5,0-0.9,0.4-0.9,1.1v3.1h-1.5v-3.1c0-0.6-0.3-1-0.8-1
			c-0.5,0-0.8,0.4-0.8,1.1v3.1H118.5z"/>
		<path class="st0" d="M131.1,17.9v-0.7h1.5v5.5h-1.5V22c-0.2,0.5-0.8,0.8-1.5,0.8c-0.7,0-1.3-0.3-1.8-0.8c-0.5-0.6-0.7-1.2-0.7-2
			c0-0.8,0.2-1.5,0.7-2c0.5-0.6,1.1-0.8,1.8-0.8C130.3,17.1,130.9,17.5,131.1,17.9z M130.8,21c0.3-0.3,0.4-0.6,0.4-1
			c0-0.4-0.1-0.7-0.4-1c-0.3-0.3-0.6-0.4-0.9-0.4c-0.4,0-0.7,0.1-0.9,0.4c-0.3,0.3-0.4,0.6-0.4,1c0,0.4,0.1,0.7,0.4,1
			c0.3,0.3,0.6,0.4,0.9,0.4C130.2,21.3,130.5,21.2,130.8,21z"/>
		<path class="st0" d="M133.6,22.7v-7.6h1.5v7.6H133.6z"/>
		<path class="st0" d="M140,17.9v-0.7h1.5v5.5H140V22c-0.2,0.5-0.8,0.8-1.5,0.8c-0.7,0-1.3-0.3-1.8-0.8c-0.5-0.6-0.7-1.2-0.7-2
			c0-0.8,0.2-1.5,0.7-2c0.5-0.6,1.1-0.8,1.8-0.8C139.2,17.1,139.8,17.5,140,17.9z M139.7,21c0.3-0.3,0.4-0.6,0.4-1
			c0-0.4-0.1-0.7-0.4-1c-0.3-0.3-0.6-0.4-0.9-0.4c-0.4,0-0.7,0.1-0.9,0.4c-0.3,0.3-0.4,0.6-0.4,1c0,0.4,0.1,0.7,0.4,1
			c0.3,0.3,0.6,0.4,0.9,0.4C139.1,21.3,139.4,21.2,139.7,21z"/>
		<path class="st0" d="M142.6,21.5h1.5l-1.3,2.6h-1.1L142.6,21.5z"/>
		<path class="st0" d="M149.2,22.7v-7.6h1.6v2.8h3.1v-2.8h1.6v7.6h-1.6v-3.3h-3.1v3.3H149.2z"/>
		<path class="st0" d="M156.6,17.2h1.5v3.1c0,0.7,0.4,1,0.9,1c0.6,0,0.9-0.3,0.9-1v-3.1h1.5v3.3c0,0.8-0.2,1.4-0.7,1.8
			c-0.5,0.4-1.1,0.6-1.8,0.6c-0.7,0-1.3-0.2-1.8-0.6c-0.5-0.4-0.7-1-0.7-1.8V17.2z"/>
		<path class="st0" d="M162.8,22.7v-4h-0.7v-1.5h0.7v-2.1h1.5v2.1h1.1v1.5h-1.1v4H162.8z"/>
		<path class="st0" d="M169.8,17.9v-0.7h1.5v5.5h-1.5V22c-0.2,0.5-0.8,0.8-1.5,0.8c-0.7,0-1.3-0.3-1.8-0.8c-0.5-0.6-0.7-1.2-0.7-2
			c0-0.8,0.2-1.5,0.7-2c0.5-0.6,1.1-0.8,1.8-0.8C169,17.1,169.6,17.5,169.8,17.9z M169.4,21c0.3-0.3,0.4-0.6,0.4-1
			c0-0.4-0.1-0.7-0.4-1c-0.3-0.3-0.6-0.4-0.9-0.4c-0.4,0-0.7,0.1-0.9,0.4c-0.3,0.3-0.4,0.6-0.4,1c0,0.4,0.1,0.7,0.4,1
			c0.3,0.3,0.6,0.4,0.9,0.4C168.9,21.3,169.2,21.2,169.4,21z"/>
		<path class="st0" d="M172.3,22.7v-7.6h1.5v2.8c0.2-0.5,0.8-0.8,1.5-0.8c0.7,0,1.3,0.3,1.8,0.8c0.5,0.5,0.7,1.2,0.7,2
			c0,0.8-0.2,1.5-0.7,2c-0.5,0.5-1.1,0.8-1.8,0.8c-0.8,0-1.4-0.3-1.5-0.8v0.7H172.3z M176,21c0.3-0.3,0.4-0.6,0.4-1
			c0-0.4-0.1-0.7-0.4-1c-0.3-0.3-0.6-0.4-0.9-0.4c-0.4,0-0.7,0.1-1,0.4c-0.3,0.3-0.4,0.6-0.4,1c0,0.4,0.1,0.7,0.4,1
			c0.3,0.3,0.6,0.4,1,0.4C175.4,21.3,175.7,21.2,176,21z"/>
		<path class="st0" d="M182.5,17.9v-0.7h1.5v5.5h-1.5V22c-0.2,0.5-0.8,0.8-1.5,0.8c-0.7,0-1.3-0.3-1.8-0.8c-0.5-0.6-0.7-1.2-0.7-2
			c0-0.8,0.2-1.5,0.7-2c0.5-0.6,1.1-0.8,1.8-0.8C181.7,17.1,182.3,17.5,182.5,17.9z M182.2,21c0.3-0.3,0.4-0.6,0.4-1
			c0-0.4-0.1-0.7-0.4-1c-0.3-0.3-0.6-0.4-0.9-0.4c-0.4,0-0.7,0.1-0.9,0.4c-0.3,0.3-0.4,0.6-0.4,1c0,0.4,0.1,0.7,0.4,1
			c0.3,0.3,0.6,0.4,0.9,0.4C181.6,21.3,181.9,21.2,182.2,21z"/>
		<path class="st0" d="M185,22.7v-5.5h1.5V18c0.2-0.6,0.8-0.9,1.5-0.9c0.1,0,0.2,0,0.4,0v1.5c-0.2,0-0.3-0.1-0.5-0.1
			c-0.9,0-1.4,0.5-1.4,1.4v2.7H185z"/>
		<path class="st0" d="M192.7,17.9v-0.7h1.5v5.5h-1.5V22c-0.2,0.5-0.8,0.8-1.5,0.8c-0.7,0-1.3-0.3-1.8-0.8c-0.5-0.6-0.7-1.2-0.7-2
			c0-0.8,0.2-1.5,0.7-2c0.5-0.6,1.1-0.8,1.8-0.8C192,17.1,192.6,17.5,192.7,17.9z M192.4,21c0.3-0.3,0.4-0.6,0.4-1
			c0-0.4-0.1-0.7-0.4-1c-0.3-0.3-0.6-0.4-0.9-0.4c-0.4,0-0.7,0.1-0.9,0.4c-0.3,0.3-0.4,0.6-0.4,1c0,0.4,0.1,0.7,0.4,1
			c0.3,0.3,0.6,0.4,0.9,0.4C191.9,21.3,192.2,21.2,192.4,21z"/>
		<path class="st0" d="M195.6,22.7v-4h-0.7v-1.5h0.7v-2.1h1.5v2.1h1.1v1.5h-1.1v4H195.6z"/>
		<path class="st0" d="M198.5,21.5h1.5l-1.3,2.6h-1.1L198.5,21.5z"/>
		<path class="st0" d="M107.3,36.1l-2.6-7.9h1.6l1.3,4l1.9-4.1l1.9,4.1l1.3-4h1.6l-2.6,7.9l-2.2-4.7L107.3,36.1z"/>
		<path class="st0" d="M118,31v-0.7h1.5v5.5H118v-0.7c-0.2,0.5-0.8,0.8-1.5,0.8c-0.7,0-1.3-0.3-1.8-0.8c-0.5-0.6-0.7-1.2-0.7-2
			c0-0.8,0.2-1.5,0.7-2c0.5-0.6,1.1-0.8,1.8-0.8C117.3,30.2,117.9,30.6,118,31z M117.7,34.1c0.3-0.3,0.4-0.6,0.4-1
			c0-0.4-0.1-0.7-0.4-1c-0.3-0.3-0.6-0.4-0.9-0.4c-0.4,0-0.7,0.1-0.9,0.4c-0.3,0.3-0.4,0.6-0.4,1c0,0.4,0.1,0.7,0.4,1
			c0.3,0.3,0.6,0.4,0.9,0.4C117.1,34.5,117.5,34.3,117.7,34.1z"/>
		<path class="st0" d="M120.5,35.8v-7.6h1.5V31c0.2-0.5,0.8-0.8,1.4-0.8c1.2,0,1.9,0.9,1.9,2.3v3.3h-1.5v-3.1c0-0.6-0.3-1-0.9-1
			c-0.6,0-0.9,0.4-0.9,1.1v3.1H120.5z"/>
		<path class="st0" d="M131,31c0.6,0.6,0.8,1.2,0.8,2.1c0,0.8-0.3,1.5-0.8,2.1c-0.6,0.6-1.2,0.8-2,0.8c-0.8,0-1.5-0.3-2-0.8
			c-0.5-0.6-0.8-1.3-0.8-2.1c0-0.8,0.3-1.5,0.8-2.1c0.6-0.6,1.2-0.9,2-0.9C129.8,30.2,130.4,30.4,131,31z M128,34.1
			c0.3,0.3,0.6,0.4,0.9,0.4c0.4,0,0.7-0.1,0.9-0.4c0.3-0.3,0.4-0.6,0.4-1c0-0.4-0.1-0.7-0.4-1c-0.3-0.3-0.6-0.4-0.9-0.4
			c-0.4,0-0.7,0.1-0.9,0.4c-0.3,0.3-0.4,0.6-0.4,1C127.7,33.5,127.8,33.8,128,34.1z"/>
		<path class="st0" d="M132.6,35.8v-5.5h1.5V31c0.2-0.5,0.8-0.8,1.5-0.8c1.2,0,2,0.9,2,2.3v3.3h-1.5v-3.1c0-0.6-0.3-1-0.9-1
			c-0.6,0-1,0.4-1,1.1v3.1H132.6z"/>
		<path class="st0" d="M143.8,31c-0.1-0.3-0.2-0.5-0.2-0.8c0-0.6,0.2-1.2,0.6-1.6c0.4-0.4,1-0.6,1.7-0.6c0.6,0,1.1,0.2,1.4,0.5
			c0.4,0.3,0.6,0.8,0.6,1.3c0,0.3-0.1,0.5-0.2,0.6h2.5v1.5H149v0.5c0,0.7-0.2,1.4-0.6,1.9l1.4,1.5h-1.9l-0.4-0.5
			c-0.5,0.4-1.3,0.7-2.2,0.7c-0.8,0-1.5-0.2-2-0.7c-0.5-0.5-0.8-1.1-0.8-1.9C142.4,32.3,142.9,31.5,143.8,31z M145.2,34.5
			c0.5,0,0.8-0.1,1-0.3c-0.6-0.6-1-1.1-1.2-1.3l-0.2-0.2c-0.1-0.1-0.1-0.2-0.3-0.3c-0.4,0.2-0.6,0.6-0.6,1
			C143.9,34.1,144.4,34.5,145.2,34.5z M147.3,33.2c0.2-0.2,0.3-0.6,0.3-1.1v-0.2h-1.4v-1c0.3-0.1,0.5-0.4,0.5-0.8
			c0-0.5-0.3-0.8-0.8-0.8c-0.4,0-0.8,0.3-0.8,0.9c0,0.3,0.2,0.7,0.5,1.1L147.3,33.2z"/>
		<path class="st0" d="M154.8,35.8v-7.6h3c0.6,0,1.1,0.2,1.6,0.7c0.5,0.5,0.8,1.1,0.8,1.9c0,0.7-0.2,1.4-0.7,1.8
			c-0.5,0.5-1,0.7-1.7,0.7h-1.4v2.5H154.8z M156.4,31.8h1.3c0.2,0,0.4-0.1,0.6-0.2c0.2-0.2,0.3-0.4,0.3-0.8s-0.1-0.6-0.3-0.8
			c-0.2-0.2-0.4-0.3-0.6-0.3h-1.3V31.8z"/>
		<path class="st0" d="M164.5,31v-0.7h1.5v5.5h-1.5v-0.7c-0.2,0.5-0.8,0.8-1.5,0.8c-0.7,0-1.3-0.3-1.8-0.8c-0.5-0.6-0.7-1.2-0.7-2
			c0-0.8,0.2-1.5,0.7-2c0.5-0.6,1.1-0.8,1.8-0.8C163.8,30.2,164.4,30.6,164.5,31z M164.2,34.1c0.3-0.3,0.4-0.6,0.4-1
			c0-0.4-0.1-0.7-0.4-1c-0.3-0.3-0.6-0.4-0.9-0.4c-0.4,0-0.7,0.1-0.9,0.4c-0.3,0.3-0.4,0.6-0.4,1c0,0.4,0.1,0.7,0.4,1
			c0.3,0.3,0.6,0.4,0.9,0.4C163.7,34.5,164,34.3,164.2,34.1z"/>
		<path class="st0" d="M167,35.8v-5.5h1.5v0.8c0.2-0.6,0.8-0.9,1.5-0.9c0.1,0,0.2,0,0.4,0v1.5c-0.2,0-0.3-0.1-0.5-0.1
			c-0.9,0-1.4,0.5-1.4,1.4v2.7H167z"/>
		<path class="st0" d="M171.5,35.8v-4h-0.7v-1.5h0.7v-2.1h1.5v2.1h1.1v1.5H173v4H171.5z"/>
		<path class="st0" d="M174.8,35.8v-5.5h1.5V31c0.2-0.5,0.8-0.8,1.5-0.8c1.2,0,2,0.9,2,2.3v3.3h-1.5v-3.1c0-0.6-0.3-1-0.9-1
			c-0.6,0-1,0.4-1,1.1v3.1H174.8z"/>
		<path class="st0" d="M180.5,33.1c0-0.9,0.3-1.6,0.8-2.1c0.5-0.5,1.2-0.8,2-0.8c0.8,0,1.4,0.3,1.9,0.8c0.5,0.5,0.7,1.2,0.7,2
			c0,0.2,0,0.4,0,0.5H182c0,0.7,0.5,1.1,1.4,1.1c0.7,0,1.3-0.2,1.8-0.5v1.4c-0.5,0.3-1.1,0.5-1.9,0.5c-0.8,0-1.5-0.3-2-0.8
			C180.8,34.7,180.5,34,180.5,33.1L180.5,33.1z M184.3,32.5c0-0.5-0.5-0.9-1.1-0.9c-0.3,0-0.6,0.1-0.8,0.3c-0.2,0.2-0.4,0.4-0.4,0.6
			H184.3z"/>
		<path class="st0" d="M186.5,35.8v-5.5h1.5v0.8c0.2-0.6,0.8-0.9,1.5-0.9c0.1,0,0.2,0,0.4,0v1.5c-0.2,0-0.3-0.1-0.5-0.1
			c-0.9,0-1.4,0.5-1.4,1.4v2.7H186.5z"/>
		<path class="st0" d="M190.4,33.9c0.6,0.4,1.2,0.7,2,0.7c0.5,0,0.8-0.1,0.8-0.4c0-0.1-0.1-0.2-0.3-0.3c-0.2-0.1-0.4-0.2-0.7-0.3
			s-0.6-0.2-0.8-0.3c-0.6-0.3-0.9-0.8-0.9-1.5c0-0.5,0.2-1,0.6-1.3c0.4-0.3,0.9-0.5,1.4-0.5c0.6,0,1.1,0.1,1.5,0.4V32
			c-0.4-0.3-0.9-0.4-1.5-0.4c-0.4,0-0.6,0.1-0.6,0.3c0,0.3,0.5,0.4,1,0.6c0.5,0.2,0.8,0.3,1.1,0.6c0.3,0.3,0.5,0.6,0.5,1.2
			c0,1.1-0.7,1.8-2.2,1.8c-0.7,0-1.3-0.2-2-0.5V33.9z"/>
	</g>
	<g>
		<g>
			<path class="st0" d="M23,4.6h-2.7v0c-0.1,0-0.3,0-0.4,0C12.8,7.1,7.1,13.1,3.4,22.1C0.7,28.7,0,34.6,0,34.9c0,0.2,0,0.5,0.2,0.7
				c0.2,0.2,0.4,0.3,0.6,0.3h2.9c0.4,0,0.8-0.4,0.8-0.9c0-0.5-0.4-0.9-0.8-0.9h-2c0.3-1.9,1.2-6.5,3.2-11.4c0.3-0.7,0.6-1.4,0.9-2
				h9.7c0.4,0,0.8-0.4,0.8-0.9c0-0.5-0.4-0.9-0.8-0.9H6.7c3.4-6.4,8-10.6,13.7-12.7v27.8c0,1,0.8,1.8,1.7,1.8h1
				c0.9,0,1.7-0.8,1.7-1.8V6.4C24.7,5.4,24,4.6,23,4.6z"/>
		</g>
		<g>
			<path class="st0" d="M72.2,5c-0.2-0.2-0.4-0.3-0.6-0.3h-2.9c-0.4,0-0.8,0.4-0.8,0.9s0.4,0.9,0.8,0.9h2c-0.3,1.9-1,6.4-3,11.3
				c-1.5,3.8-3.4,7-5.6,9.6c-0.7,0.8-1.4,1.6-2.1,2.2v-8.9c0-0.5-0.4-0.9-0.8-0.9c-0.4,0-0.8,0.4-0.8,0.9V31
				c-1.8,1.4-3.8,2.5-5.9,3.2l0-27.8c0-1-0.8-1.8-1.7-1.8l-1,0c-0.9,0-1.7,0.8-1.7,1.8l0,27.7c0,1,0.8,1.8,1.7,1.8l2.7,0l0,0
				c0.1,0,0.1,0,0.2,0c0.1,0,0.2,0,0.2,0c7.1-2.5,12.8-8.5,16.3-17.4c2.7-6.7,3.2-12.6,3.2-12.8C72.4,5.4,72.4,5.1,72.2,5z"/>
		</g>
		<g>
			<g>
				<path class="st0" d="M37.2,16.6h-0.6h-0.2h-4v-11h0l-3.4-5l0,0c-0.1-0.3-0.4-0.4-0.7-0.4h-7.1c-0.4,0-0.8,0.4-0.8,0.9
					S20.7,2,21.1,2h6.4L28,5.7h0v10.9c0,1,0.8,1.8,1.7,1.8h0.1c0,0,0,0,0,0h6.5L37.2,16.6z"/>
			</g>
			<g>
				<path class="st0" d="M51.7,0.2h-7.1c-0.3,0-0.6,0.2-0.7,0.4l0,0l-3.4,5h0v11h0l0,0l-0.9,1.7h3.2c0,0,0,0,0,0h0.4
					c0.9,0,1.7-0.8,1.7-1.8V5.7h0L45.2,2h6.4c0.4,0,0.8-0.4,0.8-0.9S52.1,0.2,51.7,0.2z"/>
			</g>
		</g>
		<g>
			<g>
				<path class="st0" d="M32.3,22.9l0.9-1.7h-3.2c0,0,0,0,0,0h-0.4C28.7,21.2,28,22,28,23v12.9h-0.6c-0.4,0-0.8,0.4-0.8,0.9
					s0.4,0.9,0.8,0.9H28v0h2.7c0.9,0,1.7-0.8,1.7-1.8L32.3,22.9L32.3,22.9z"/>
			</g>
			<g>
				<path class="st0" d="M45.5,35.9h-0.6V23c0-1-0.8-1.8-1.7-1.8h-0.4c0,0,0,0,0,0h-6.2h0l-0.9,1.7h0.5h0.5h3.9v12.9
					c0,1,0.8,1.8,1.7,1.8h2.7v0h0.6c0.4,0,0.8-0.4,0.8-0.9S45.9,35.9,45.5,35.9z"/>
			</g>
		</g>
	</g>
	<g>
		<rect x="88" y="0.3" class="st0" width="1.2" height="37.4"/>
	</g>
</g>
</svg>
